<svg width="40" height="40" viewBox="0 0 40 40" fill="none" xmlns="http://www.w3.org/2000/svg">
<path d="M1.81818 2.00006V0C1.33597 0 0.873508 0.21072 0.532533 0.585805C0.191558 0.96089 0 1.46961 0 2.00006H1.81818ZM21.8182 2.00006H23.6364C23.6364 1.46961 23.4448 0.96089 23.1038 0.585805C22.7629 0.21072 22.3004 0 21.8182 0V2.00006ZM21.8182 14.0004V12.0004C21.336 12.0004 20.8735 12.2111 20.5325 12.5862C20.1916 12.9613 20 13.47 20 14.0004H21.8182ZM1.81818 4.00013H21.8182V0H1.81818V4.00013ZM20 2.00006V34.0011H23.6364V2.00006H20ZM3.63636 30.001V2.00006H0V30.001H3.63636ZM21.8182 16.0005H30.9091V12.0004H21.8182V16.0005ZM36.3636 22.0007V30.001H40V22.0007H36.3636ZM23.6364 34.0011V14.0004H20V34.0011H23.6364ZM32.1945 35.4151C31.8536 35.7901 31.3912 36.0007 30.9091 36.0007C30.427 36.0007 29.9646 35.7901 29.6236 35.4151L27.0527 38.2432C28.0756 39.3681 29.4627 40 30.9091 40C32.3554 40 33.7426 39.3681 34.7655 38.2432L32.1945 35.4151ZM29.6236 32.587C29.9646 32.2121 30.427 32.0015 30.9091 32.0015C31.3912 32.0015 31.8536 32.2121 32.1945 32.587L34.7655 29.759C33.7426 28.6341 32.3554 28.0022 30.9091 28.0022C29.4627 28.0022 28.0756 28.6341 27.0527 29.759L29.6236 32.587ZM10.3764 35.4151C10.0354 35.7901 9.57303 36.0007 9.09091 36.0007C8.60879 36.0007 8.14641 35.7901 7.80546 35.4151L5.23455 38.2432C6.25742 39.3681 7.64456 40 9.09091 40C10.5373 40 11.9244 39.3681 12.9473 38.2432L10.3764 35.4151ZM7.80546 32.587C8.14641 32.2121 8.60879 32.0015 9.09091 32.0015C9.57303 32.0015 10.0354 32.2121 10.3764 32.587L12.9473 29.759C11.9244 28.6341 10.5373 28.0022 9.09091 28.0022C7.64456 28.0022 6.25742 28.6341 5.23455 29.759L7.80546 32.587ZM32.1945 32.587C32.5509 32.9771 32.7273 33.4871 32.7273 34.0011H36.3636C36.3636 32.469 35.8309 30.929 34.7655 29.759L32.1945 32.587ZM32.7273 34.0011C32.7272 34.5315 32.5355 35.0401 32.1945 35.4151L34.7655 38.2432C35.7885 37.1182 36.3633 35.5923 36.3636 34.0011H32.7273ZM27.2727 32.001H21.8182V36.0012H27.2727V32.001ZM29.6236 35.4151C29.2826 35.0401 29.091 34.5315 29.0909 34.0011H25.4545C25.4545 35.5331 25.9873 37.0732 27.0527 38.2432L29.6236 35.4151ZM29.0909 34.0011C29.091 33.4707 29.2826 32.962 29.6236 32.587L27.0527 29.759C26.0297 30.8839 25.4549 32.4099 25.4545 34.0011H29.0909ZM7.80546 35.4151C7.46446 35.0401 7.27283 34.5315 7.27273 34.0011H3.63636C3.63636 35.5331 4.16909 37.0732 5.23455 38.2432L7.80546 35.4151ZM7.27273 34.0011C7.27283 33.4707 7.46446 32.962 7.80546 32.587L5.23455 29.759C4.21155 30.8839 3.63667 32.4099 3.63636 34.0011H7.27273ZM21.8182 32.001H12.7273V36.0012H21.8182V32.001ZM10.3764 32.587C10.7327 32.9771 10.9091 33.4871 10.9091 34.0011H14.5455C14.5455 32.469 14.0127 30.929 12.9473 29.759L10.3764 32.587ZM10.9091 34.0011C10.909 34.5315 10.7174 35.0401 10.3764 35.4151L12.9473 38.2432C13.9703 37.1182 14.5451 35.5923 14.5455 34.0011H10.9091ZM36.3636 30.001C36.3636 30.5314 36.1721 31.0401 35.8311 31.4152C35.4901 31.7903 35.0277 32.001 34.5455 32.001V36.0012C35.9921 36.0012 37.3795 35.369 38.4024 34.2437C39.4253 33.1185 40 31.5923 40 30.001H36.3636ZM30.9091 16.0005C32.3557 16.0005 33.7431 16.6327 34.766 17.7579C35.789 18.8832 36.3636 20.4094 36.3636 22.0007H40C40 20.6874 39.7649 19.387 39.308 18.1737C38.8511 16.9605 38.1815 15.858 37.3373 14.9294C36.4932 14.0008 35.491 13.2642 34.388 12.7616C33.2851 12.259 32.1029 12.0004 30.9091 12.0004V16.0005ZM0 30.001C0 31.5923 0.574674 33.1185 1.5976 34.2437C2.62053 35.369 4.00791 36.0012 5.45455 36.0012V32.001C4.97233 32.001 4.50987 31.7903 4.1689 31.4152C3.82792 31.0401 3.63636 30.5314 3.63636 30.001H0Z" fill="#D4AF37"/>
<path d="M1.81738 11.998H7.27193H1.81738ZM1.81738 19.9983H10.9083H1.81738Z" fill="#D4AF37"/>
<path d="M1.81738 11.998H7.27193M1.81738 19.9983H10.9083" stroke="#D4AF37" stroke-width="2" stroke-linecap="round" stroke-linejoin="round"/>
</svg>
