<svg width="20" height="22" viewBox="0 0 20 22" fill="none" xmlns="http://www.w3.org/2000/svg">
<path d="M18 0.734863C19.1045 0.734863 20 1.67838 20 2.84229V19.7026C19.9999 20.8665 19.1045 21.8101 18 21.8101H2C0.895477 21.8101 7.49527e-05 20.8665 0 19.7026V2.84229C4.732e-05 1.67838 0.89546 0.734863 2 0.734863H18ZM4.25 8.49463V17.5952H6.93652V8.49463H4.25ZM13.7773 8.26807C12.4706 8.26811 11.5942 9.02261 11.2354 9.73779H11.1992V8.49463H8.62207V17.5952H11.3066V13.0923C11.3067 11.9055 11.5222 10.7563 12.9199 10.7563C14.2974 10.7566 14.3154 12.1139 14.3154 13.1694V17.5952H17V12.604C17 10.1535 16.4975 8.26807 13.7773 8.26807ZM5.56641 3.896C4.7013 3.896 4.00007 4.63463 4 5.54443C4.00016 6.45416 4.70045 7.19287 5.56641 7.19287C6.42962 7.19285 7.13167 6.45414 7.13184 5.54443C7.13176 4.6356 6.42968 3.89601 5.56641 3.896Z" fill="#28527A"/>
</svg>
