<svg width="40" height="40" viewBox="0 0 40 40" fill="none" xmlns="http://www.w3.org/2000/svg">
<g clip-path="url(#clip0_176_464)">
<path fill-rule="evenodd" clip-rule="evenodd" d="M6.4259 11.6C6.4559 13.118 5.6299 15.17 4.5559 16.242C3.55931 17.2395 2.99951 18.5919 2.99951 20.002C2.99951 21.4121 3.55931 22.7644 4.5559 23.762C5.6159 24.818 6.3959 26.65 6.4259 28.146C6.4539 29.47 6.9719 30.786 7.9819 31.794C8.91373 32.7277 10.1603 33.2804 11.4779 33.344C13.0599 33.424 15.1319 34.344 16.2519 35.464C17.2494 36.46 18.6013 37.0194 20.0109 37.0194C21.4205 37.0194 22.7724 36.46 23.7699 35.464C24.8899 34.344 26.9619 33.424 28.5439 33.344C29.8615 33.2804 31.1081 32.7277 32.0399 31.794C33.0113 30.8239 33.5685 29.5146 33.5939 28.142C33.6239 26.65 34.3939 24.83 35.4519 23.774C36.4523 22.7768 37.0155 21.423 37.0178 20.0105C37.0201 18.598 36.4611 17.2424 35.4639 16.242C34.3919 15.172 33.5639 13.118 33.5959 11.602C33.611 10.8862 33.4809 10.1748 33.2134 9.51071C32.946 8.84661 32.5468 8.24357 32.0399 7.73799C31.5146 7.21127 30.8842 6.80104 30.1899 6.53399C29.4956 6.26694 28.7528 6.14905 28.0099 6.18799C26.5819 6.25999 24.7799 5.56799 23.7699 4.55599C22.7724 3.5594 21.42 2.9996 20.0099 2.9996C18.5998 2.9996 17.2474 3.5594 16.2499 4.55599C15.2419 5.56599 13.4379 6.25999 12.0099 6.18799C11.2673 6.14934 10.5249 6.26737 9.83098 6.53441C9.13701 6.80145 8.507 7.21153 7.9819 7.73799C7.47525 8.24334 7.07619 8.84605 6.80877 9.50979C6.54135 10.1735 6.41111 10.8846 6.4259 11.6ZM26.0819 13.252C26.3116 13.3795 26.514 13.5509 26.6774 13.7566C26.8409 13.9623 26.9622 14.1982 27.0344 14.4508C27.1067 14.7034 27.1284 14.9678 27.0985 15.2288C27.0685 15.4898 26.9875 15.7423 26.8599 15.972L21.3239 25.936C21.1805 26.2074 20.9766 26.4421 20.7279 26.622C20.3665 26.8834 19.9281 27.0166 19.4824 27.0003C19.0367 26.984 18.6092 26.8191 18.2679 26.532L12.7499 22.118C12.5448 21.9538 12.374 21.7509 12.2473 21.5207C12.1206 21.2906 12.0405 21.0377 12.0115 20.7766C11.9825 20.5155 12.0053 20.2512 12.0784 19.9989C12.1516 19.7466 12.2737 19.5111 12.4379 19.306C12.602 19.1009 12.805 18.9301 13.0352 18.8034C13.2653 18.6767 13.5182 18.5966 13.7793 18.5676C14.0404 18.5386 14.3047 18.5614 14.557 18.6345C14.8093 18.7077 15.0448 18.8298 15.2499 18.994L18.9559 21.96L23.3619 14.028C23.4895 13.7984 23.6611 13.5963 23.8669 13.433C24.0727 13.2698 24.3086 13.1487 24.5612 13.0766C24.8138 13.0046 25.078 12.983 25.339 13.0131C25.5999 13.0431 25.8524 13.1243 26.0819 13.252Z" fill="#D4AF37"/>
</g>
<defs>
<clipPath id="clip0_176_464">
<rect width="40" height="40" fill="white"/>
</clipPath>
</defs>
</svg>
