<svg width="10" height="10" viewBox="0 0 10 10" fill="none" xmlns="http://www.w3.org/2000/svg">
<path d="M8.01284 9.99991C7.57704 9.99991 6.96486 9.84232 6.04815 9.33026C4.93341 8.70525 4.07118 8.12824 2.96248 7.02264C1.89351 5.95455 1.37331 5.26303 0.645261 3.93846C-0.177228 2.4429 -0.037021 1.65896 0.119707 1.32392C0.306353 0.923465 0.581856 0.683953 0.937955 0.446227C1.14022 0.313733 1.35426 0.200156 1.57737 0.106937C1.5997 0.0973387 1.62046 0.0881868 1.63899 0.0799278C1.74951 0.0301504 1.91695 -0.0450737 2.12905 0.0352844C2.27059 0.08841 2.39696 0.197117 2.59477 0.392432C3.00043 0.792436 3.55478 1.6833 3.75929 2.1208C3.8966 2.41567 3.98746 2.61032 3.98769 2.82862C3.98769 3.0842 3.85909 3.28131 3.70303 3.49403C3.67378 3.53399 3.64476 3.57216 3.61663 3.60921C3.44673 3.83243 3.40944 3.89694 3.434 4.01212C3.48379 4.24359 3.85507 4.93266 4.46524 5.54138C5.07541 6.15009 5.74474 6.49786 5.97715 6.54742C6.09727 6.57309 6.16313 6.53425 6.39353 6.35835C6.42658 6.33313 6.46051 6.30701 6.49601 6.2809C6.73401 6.10388 6.92199 5.97866 7.1716 5.97866H7.17294C7.39017 5.97866 7.57614 6.07286 7.88424 6.22822C8.28611 6.4309 9.20393 6.978 9.60647 7.38403C9.80227 7.58136 9.91144 7.70725 9.9648 7.84855C10.0452 8.06127 9.96949 8.22802 9.92015 8.33962C9.91189 8.35815 9.90273 8.37846 9.89313 8.40101C9.79916 8.62368 9.68489 8.83723 9.55177 9.03896C9.31444 9.39388 9.07399 9.66866 8.67257 9.85549C8.46645 9.95299 8.24085 10.0024 8.01284 9.99991Z" fill="black"/>
</svg>
