<svg width="40" height="40" viewBox="0 0 40 40" fill="none" xmlns="http://www.w3.org/2000/svg">
<g clip-path="url(#clip0_176_472)">
<path fill-rule="evenodd" clip-rule="evenodd" d="M9.71492 17.1417C11.7216 17.005 13.5508 18.33 13.8558 20.4583C14.0266 21.6508 14.1666 23.3575 14.1666 25.75C14.1666 28.1433 14.0266 29.85 13.8558 31.0425C13.5366 33.2708 11.5458 34.6183 9.43076 34.3292C7.45826 34.0592 5.51492 33.5225 4.25826 33.1308C2.83992 32.6892 1.65242 31.5583 1.29826 29.9883C0.988139 28.5969 0.832199 27.1756 0.833257 25.75C0.833257 24.01 1.06659 22.5433 1.29826 21.5125C1.60909 20.1333 2.56242 19.0942 3.74992 18.5617C3.80992 10.075 11.0833 3.25 19.9999 3.25C28.9166 3.25 36.1899 10.075 36.2499 18.5617C37.4374 19.0942 38.3908 20.1333 38.7016 21.5117C38.9341 22.5433 39.1666 24.01 39.1666 25.75C39.1666 27.49 38.9333 28.9567 38.7016 29.9883C38.3658 31.4783 37.2799 32.5717 35.9583 33.0575C35.0766 35.9483 33.3249 37.9467 30.6083 39.1592C27.9166 40.3592 24.3649 40.7483 19.9999 40.7483C19.5579 40.7483 19.134 40.5727 18.8214 40.2602C18.5089 39.9476 18.3333 39.5237 18.3333 39.0817C18.3333 38.6396 18.5089 38.2157 18.8214 37.9032C19.134 37.5906 19.5579 37.415 19.9999 37.415C24.2749 37.415 27.2324 37.015 29.2499 36.115C30.3333 35.6317 31.1666 34.9958 31.7916 34.13C31.3883 34.2056 30.981 34.2722 30.5699 34.33C28.4541 34.6183 26.4633 33.2708 26.1449 31.0425C25.9733 29.85 25.8333 28.1425 25.8333 25.7508C25.8333 23.3575 25.9733 21.6508 26.1441 20.4575C26.4491 18.33 28.2783 17.005 30.2858 17.1417C29.4916 12.595 25.2141 9.08333 19.9999 9.08333C14.7858 9.08333 10.5074 12.595 9.71492 17.1417ZM9.88159 20.4733C10.1108 20.4425 10.2666 20.5017 10.3583 20.5683C10.4449 20.6308 10.5283 20.7375 10.5558 20.93C10.6999 21.9383 10.8333 23.4842 10.8333 25.75C10.8333 28.0167 10.6999 29.5617 10.5558 30.57C10.5283 30.7625 10.4441 30.87 10.3583 30.9325C10.2666 30.9992 10.1108 31.0575 9.88159 31.0267C8.17159 30.7933 6.42742 30.315 5.24992 29.9483C4.84742 29.8233 4.61576 29.5458 4.54992 29.2558C4.29402 28.1048 4.16547 26.9291 4.16659 25.75C4.16659 24.3033 4.36076 23.0858 4.54992 22.245C4.61576 21.955 4.84742 21.6775 5.24992 21.5517C6.42742 21.185 8.17159 20.7075 9.88159 20.4733ZM29.6416 20.5683C29.5558 20.6308 29.4716 20.7375 29.4441 20.93C29.2999 21.9383 29.1666 23.4842 29.1666 25.75C29.1666 28.0167 29.2999 29.5617 29.4441 30.57C29.4716 30.7625 29.5558 30.87 29.6416 30.9325C29.7333 30.9992 29.8891 31.0575 30.1183 31.0267C31.8283 30.7933 33.5724 30.315 34.7499 29.9483C35.1524 29.8233 35.3841 29.5458 35.4499 29.2558C35.6391 28.4142 35.8333 27.1975 35.8333 25.75C35.8343 24.5711 35.7058 23.3958 35.4499 22.245C35.3841 21.955 35.1524 21.6775 34.7499 21.5517C33.5724 21.185 31.8283 20.7075 30.1183 20.4733C29.8891 20.4425 29.7333 20.5017 29.6416 20.5683Z" fill="#D4AF37"/>
</g>
<defs>
<clipPath id="clip0_176_472">
<rect width="40" height="40" fill="white"/>
</clipPath>
</defs>
</svg>
