<svg width="20" height="22" viewBox="0 0 20 22" fill="none" xmlns="http://www.w3.org/2000/svg">
<path d="M18 0.734863C19.1045 0.734863 20 1.67838 20 2.84229V19.7026C19.9999 20.8665 19.1045 21.8101 18 21.8101H2C0.895477 21.8101 7.49527e-05 20.8665 0 19.7026V2.84229C4.732e-05 1.67838 0.89546 0.734863 2 0.734863H18ZM12.6924 5.47705C11.1062 5.4771 9.8204 6.78731 9.82031 8.40283C9.82031 8.63215 9.84607 8.85642 9.89453 9.06982C7.5077 8.94798 5.39175 7.78206 3.97461 6.01123C3.728 6.44353 3.58594 6.94681 3.58594 7.48389C3.58605 8.49851 4.09304 9.39403 4.86328 9.91846C4.3928 9.90306 3.94956 9.77206 3.5625 9.55322V9.58936C3.5625 11.0073 4.55212 12.19 5.86621 12.4585C5.62563 12.5254 5.37147 12.561 5.10938 12.561C4.92477 12.561 4.74425 12.5427 4.56934 12.5093C4.93494 13.6718 5.99621 14.5179 7.25293 14.5415C6.2703 15.3265 5.03161 15.7944 3.68555 15.7944C3.45402 15.7944 3.22507 15.7808 3 15.7534C4.27113 16.5834 5.78021 17.0678 7.40234 17.0679C12.6855 17.0679 15.5742 12.6088 15.5742 8.7417C15.5742 8.61518 15.5718 8.4892 15.5664 8.36377C16.1279 7.95073 16.615 7.43547 17 6.84912C16.4848 7.0822 15.9314 7.23928 15.3506 7.31006C15.9439 6.94799 16.399 6.37441 16.6133 5.69092C16.0588 6.02603 15.4436 6.26919 14.7891 6.40088C14.2652 5.83198 13.5184 5.47705 12.6924 5.47705Z" fill="#28527A"/>
</svg>
